<svg width="80" height="68" viewBox="0 0 80 68" fill="none" xmlns="http://www.w3.org/2000/svg">
<g clip-path="url(#clip0_14_845)">
<mask id="mask0_14_845" style="mask-type:luminance" maskUnits="userSpaceOnUse" x="11" y="8" width="68" height="45">
<path d="M11.7455 8.65479H78.5091V52.734H11.7455V8.65479Z" fill="white"/>
</mask>
<g mask="url(#mask0_14_845)">
<mask id="mask1_14_845" style="mask-type:luminance" maskUnits="userSpaceOnUse" x="12" y="9" width="67" height="44">
<path d="M46.692 9.33063C47.5034 9.0312 48.3969 9.07466 49.1792 9.44654C49.9568 9.81841 50.5605 10.4897 50.8551 11.3156L56.3125 26.461C56.3173 26.4803 56.3173 26.4997 56.3125 26.519L52.3136 38.6653C52.2895 38.7522 52.1784 38.7522 52.1446 38.6653L48.1409 26.6107C48.0926 26.461 47.9574 26.3548 47.798 26.3548H42.7221C42.6062 26.3596 42.4952 26.4176 42.4275 26.5142C42.3599 26.6107 42.3406 26.7363 42.3792 26.8522L49.0392 46.0738C49.0923 46.2187 49.2227 46.3153 49.3821 46.3153H55.0713C55.2258 46.3153 55.3611 46.2139 55.4142 46.0642L59.2488 34.6133L59.3551 34.3042C60.6639 30.5661 62.0838 29.1366 62.4846 28.784C64.2909 26.9488 66.923 26.0505 69.5986 26.0505C74.0369 26.0505 78.2096 28.7357 78.2096 34.14V37.5883C78.2096 37.6849 78.171 37.7815 78.1034 37.8491C78.0358 37.9215 77.944 37.9602 77.8474 37.9602H66.44C66.3917 37.9602 66.3483 37.9988 66.3483 38.0471V38.7909C66.3483 41.0221 68.454 42.0411 70.4486 42.0411C72.0037 42.0411 74.1335 41.2539 75.2201 40.4571C75.3022 40.3991 75.3988 40.3798 75.4954 40.3991C75.592 40.4136 75.6741 40.4715 75.7273 40.5536L77.6736 43.4852C77.7701 43.6397 77.746 43.8377 77.6156 43.9633C75.6258 45.8951 72.7378 46.8369 69.6758 46.8369C67.2707 46.8369 64.9236 46.2525 63.1559 44.9678C63.0883 44.9099 62.9917 44.9872 63.0255 45.0693L64.146 48.1795C64.9236 50.348 63.354 52.6517 61.0986 52.6517H24.1332C22.7665 52.6517 21.5494 51.7775 21.081 50.4687L12.2622 25.6786C11.6537 23.9642 12.5278 22.0468 14.2037 21.4238L20.7525 18.9849C20.7815 18.9752 20.8105 18.9801 20.8346 18.9946C20.8588 19.0139 20.8733 19.038 20.8733 19.0718V41.138C20.8733 43.8232 22.2787 46.6196 26.379 46.6196C27.6057 46.6196 28.9628 46.3588 30.0349 46.0545C30.1895 46.011 30.2957 45.8613 30.2957 45.6971V41.6644C30.2957 41.5582 30.2523 41.4616 30.1798 41.3892C30.1025 41.3215 30.0011 41.2877 29.8949 41.2974C29.3974 41.3553 28.9966 41.4036 28.5233 41.4036C27.2724 41.4036 27.0068 40.7613 27.0068 39.892V16.7247C27.0068 16.6812 27.031 16.6474 27.0648 16.6377L46.692 9.33063ZM39.2449 26.3596H33.8696C33.773 26.3644 33.6812 26.4031 33.6136 26.4707C33.546 26.5383 33.5074 26.6349 33.5122 26.7315V45.871C33.5122 46.0786 33.6716 46.238 33.8696 46.238H39.2449C39.4429 46.238 39.6071 46.0738 39.6071 45.871V26.7315C39.6071 26.5286 39.4429 26.3644 39.2449 26.3596ZM69.4488 30.6676C67.8261 30.6676 66.3483 31.648 66.3483 33.7971V34.2366C66.3483 34.2849 66.3869 34.3284 66.44 34.3284H72.3562C72.4094 34.3284 72.4432 34.2849 72.4432 34.2366V33.686C72.4432 31.6093 71.0764 30.6676 69.4537 30.6676H69.4488ZM39.2449 18.4198H33.8696C33.6667 18.4247 33.5074 18.5889 33.5122 18.7965V23.6068C33.5122 23.8144 33.6716 23.9738 33.8696 23.9738H39.2449C39.4429 23.9738 39.6071 23.8096 39.6071 23.6068V18.7965C39.6071 18.5889 39.4429 18.4247 39.2449 18.4198Z" fill="white"/>
</mask>
<g mask="url(#mask1_14_845)">
<path d="M12.069 9.06494H78.2097V52.7192H12.069V9.06494Z" fill="url(#paint0_linear_14_845)"/>
</g>
</g>
<mask id="mask2_14_845" style="mask-type:luminance" maskUnits="userSpaceOnUse" x="20" y="54" width="11" height="14">
<path d="M20.4 54.3999H30.2909V67.9999H20.4V54.3999Z" fill="white"/>
</mask>
<g mask="url(#mask2_14_845)">
<mask id="mask3_14_845" style="mask-type:luminance" maskUnits="userSpaceOnUse" x="20" y="54" width="10" height="14">
<path d="M24.877 54.9746C24.9301 54.9746 24.9736 55.0277 24.9639 55.0809L24.2105 59.4516H24.2637C24.9156 58.732 25.8381 58.2684 26.8137 58.2684C28.4557 58.2684 29.6438 59.2149 29.6438 60.9584C29.6438 61.2192 29.6293 61.4559 29.581 61.7167C29.4651 62.4411 29.325 63.1607 29.2091 63.861C28.8227 66.0198 27.1324 67.4107 25.0026 67.4107C24.2347 67.4107 23.3847 67.0485 22.9742 66.3627C22.9645 66.3434 22.9355 66.3482 22.9307 66.3675L22.7713 67.1306C22.7617 67.174 22.723 67.203 22.6796 67.203H20.9796C20.9554 67.203 20.9313 67.1885 20.9168 67.1692C20.8975 67.1499 20.8926 67.1209 20.8975 67.0968L22.9742 55.0471C22.9838 55.0036 23.0225 54.9746 23.0659 54.9746H24.877ZM25.9588 60.0167C24.8673 60.0167 23.9594 60.8377 23.7807 61.9243L23.4281 63.9624C23.404 64.0638 23.404 64.1846 23.404 64.286C23.404 65.2519 24.196 65.6962 25.0509 65.6962C26.123 65.6962 26.9972 65.0442 27.1807 63.9286L27.5477 61.7311C27.5719 61.6297 27.5864 61.5283 27.5864 61.4076C27.5864 60.4417 26.8137 60.0167 25.9588 60.0167Z" fill="white"/>
</mask>
<g mask="url(#mask3_14_845)">
<path d="M20.8927 54.9746H29.6439V67.4107H20.8927V54.9746Z" fill="#1629DA"/>
</g>
</g>
<mask id="mask4_14_845" style="mask-type:luminance" maskUnits="userSpaceOnUse" x="30" y="58" width="9" height="10">
<path d="M30.2909 58.1089H38.8827V67.9998H30.2909V58.1089Z" fill="white"/>
</mask>
<g mask="url(#mask4_14_845)">
<mask id="mask5_14_845" style="mask-type:luminance" maskUnits="userSpaceOnUse" x="30" y="58" width="9" height="10">
<path d="M35.5165 58.2686C37.1923 58.2686 38.6364 59.1234 38.6364 60.9972C38.6364 61.6734 38.448 62.6248 38.3321 63.3203C38.3224 63.3637 38.2838 63.3975 38.2403 63.3975H32.8168C32.8071 63.3975 32.7974 63.4024 32.7974 63.412C32.7491 63.6873 32.6815 63.9674 32.6815 64.2379C32.6815 65.2521 33.5219 65.6964 34.4057 65.6964C35.5937 65.6964 36.6369 65.199 37.1923 64.9285C37.2406 64.9044 37.2937 64.9237 37.3179 64.9671L37.883 66.1649C37.9023 66.2035 37.8926 66.247 37.8588 66.2759C37.1006 66.9376 35.5793 67.4109 34.0097 67.4109C32.2469 67.4109 30.5855 66.5512 30.5855 64.5325C30.5855 63.8419 30.8222 62.8132 30.9381 62.108C31.3582 59.7754 33.2321 58.2686 35.5165 58.2686ZM35.2267 59.9975C34.1545 59.9975 33.4349 60.5819 33.15 61.543C33.121 61.6734 33.0727 61.8038 33.0486 61.9438C33.0486 61.9583 33.0631 61.9728 33.0776 61.9728H36.5548C36.5645 61.9728 36.5741 61.968 36.5741 61.9583C36.608 61.7362 36.6562 61.5382 36.6562 61.3208C36.6562 60.4274 36.0332 59.9975 35.2267 59.9975Z" fill="white"/>
</mask>
<g mask="url(#mask5_14_845)">
<path d="M30.5855 58.2686H38.6364V67.4109H30.5855V58.2686Z" fill="#1629DA"/>
</g>
</g>
<mask id="mask6_14_845" style="mask-type:luminance" maskUnits="userSpaceOnUse" x="38" y="55" width="8" height="13">
<path d="M38.9455 55.6362H45.1273V67.9999H38.9455V55.6362Z" fill="white"/>
</mask>
<g mask="url(#mask6_14_845)">
<mask id="mask7_14_845" style="mask-type:luminance" maskUnits="userSpaceOnUse" x="39" y="55" width="6" height="13">
<path d="M43.5094 55.7666C43.5625 55.7666 43.606 55.8149 43.5915 55.8729L43.152 58.4084C43.1471 58.4277 43.1568 58.4373 43.1713 58.4373H44.9003C44.9582 58.4373 44.9969 58.4905 44.9872 58.5484L44.7506 59.978C44.7409 60.0214 44.7071 60.0504 44.6588 60.0504H42.896C42.8864 60.0504 42.8719 60.0601 42.8719 60.0697L42.0895 64.6481C42.0702 64.7351 42.0557 64.8172 42.0557 64.9041C42.0557 65.3677 42.3406 65.5223 42.7608 65.5223C43.0699 65.5223 43.3693 65.4933 43.6784 65.4595C43.7074 65.4547 43.7364 65.4643 43.7557 65.4836C43.775 65.503 43.7846 65.5319 43.7798 65.5609L43.5239 67.1064C43.519 67.145 43.49 67.174 43.4514 67.1788C42.9781 67.2609 42.471 67.3044 42.0025 67.3044C40.9304 67.3044 39.9596 66.8939 39.9596 65.643C39.9596 65.474 39.9596 65.3146 39.9886 65.1504L40.8773 60.0794C40.8773 60.0649 40.8676 60.0504 40.8531 60.0504H39.8293C39.7761 60.0504 39.7327 59.9973 39.7423 59.9442L39.979 58.5146C39.9838 58.4711 40.0224 58.4373 40.0707 58.4373H41.1332C41.1429 58.4373 41.1477 58.4325 41.1525 58.4229L41.6065 55.839C41.6114 55.7907 41.65 55.7666 41.6935 55.7666H43.5094Z" fill="white"/>
</mask>
<g mask="url(#mask7_14_845)">
<path d="M39.7423 55.7666H44.9921V67.3044H39.7423V55.7666Z" fill="#1629DA"/>
</g>
</g>
<mask id="mask8_14_845" style="mask-type:luminance" maskUnits="userSpaceOnUse" x="45" y="55" width="7" height="13">
<path d="M45.1273 55.6362H51.1787V67.9999H45.1273V55.6362Z" fill="white"/>
</mask>
<g mask="url(#mask8_14_845)">
<mask id="mask9_14_845" style="mask-type:luminance" maskUnits="userSpaceOnUse" x="45" y="55" width="6" height="13">
<path d="M49.4111 55.7666C49.469 55.7666 49.5077 55.8149 49.498 55.8729L49.0537 58.4084C49.0489 58.4277 49.0585 58.4373 49.0778 58.4373H50.8068C50.8599 58.4373 50.9034 58.4905 50.8889 58.5484L50.6571 59.978C50.6474 60.0214 50.6088 60.0504 50.5653 60.0504H48.7977C48.7881 60.0504 48.7784 60.0601 48.7784 60.0697L47.9912 64.6481C47.9767 64.7351 47.9622 64.8172 47.9622 64.9041C47.9622 65.3677 48.2423 65.5223 48.6625 65.5223C48.9764 65.5223 49.271 65.4933 49.5849 65.4595C49.6429 65.445 49.6912 65.4981 49.6864 65.5609L49.4304 67.1064C49.4207 67.145 49.3917 67.174 49.3531 67.1788C48.8846 67.2609 48.3727 67.3044 47.9042 67.3044C46.8321 67.3044 45.8614 66.8939 45.8614 65.643C45.8614 65.474 45.8614 65.3146 45.8952 65.1504L46.779 60.0794C46.779 60.0649 46.7693 60.0504 46.7596 60.0504H45.7358C45.6778 60.0504 45.6392 59.9973 45.644 59.9442L45.8855 58.5146C45.8903 58.4711 45.9241 58.4373 45.9676 58.4373H47.0301C47.0446 58.4373 47.0543 58.4325 47.0591 58.4229L47.5082 55.839C47.5179 55.7956 47.5517 55.7666 47.5952 55.7666H49.4111Z" fill="white"/>
</mask>
<g mask="url(#mask9_14_845)">
<path d="M45.644 55.7666H50.8937V67.3044H45.644V55.7666Z" fill="#1629DA"/>
</g>
</g>
<mask id="mask10_14_845" style="mask-type:luminance" maskUnits="userSpaceOnUse" x="50" y="58" width="10" height="10">
<path d="M50.0727 58.1089H59.3793V67.9998H50.0727V58.1089Z" fill="white"/>
</mask>
<g mask="url(#mask10_14_845)">
<mask id="mask11_14_845" style="mask-type:luminance" maskUnits="userSpaceOnUse" x="50" y="58" width="9" height="10">
<path d="M55.704 58.2686C57.3798 58.2686 58.8239 59.1234 58.8239 60.9972C58.8239 61.6734 58.6355 62.6248 58.5196 63.3203C58.5148 63.3637 58.4761 63.3975 58.4278 63.3975H53.0091C52.9946 63.3975 52.9898 63.4024 52.9849 63.412C52.9366 63.6873 52.869 63.9674 52.869 64.2379C52.869 65.2521 53.7094 65.6964 54.6028 65.6964C55.7812 65.6964 56.8244 65.199 57.3847 64.9285C57.4281 64.9044 57.4812 64.9285 57.5054 64.9671L58.0753 66.1649C58.0898 66.2035 58.0801 66.247 58.056 66.2759C57.2977 66.9376 55.7668 67.4109 54.1972 67.4109C52.4344 67.4109 50.773 66.5512 50.773 64.5325C50.773 63.8419 51.0097 62.8132 51.1256 62.108C51.5457 59.7754 53.4293 58.2686 55.704 58.2686ZM55.4239 59.9975C54.3469 59.9975 53.6224 60.5819 53.3423 61.543C53.3085 61.6734 53.2602 61.8038 53.2457 61.9438C53.2409 61.9583 53.2506 61.9728 53.2651 61.9728H56.7423C56.752 61.9728 56.7616 61.968 56.7616 61.9583C56.8003 61.7362 56.8486 61.5382 56.8486 61.3208C56.8486 60.4274 56.2207 59.9975 55.4239 59.9975Z" fill="white"/>
</mask>
<g mask="url(#mask11_14_845)">
<path d="M50.773 58.2686H58.8239V67.4109H50.773V58.2686Z" fill="#1629DA"/>
</g>
</g>
<mask id="mask12_14_845" style="mask-type:luminance" maskUnits="userSpaceOnUse" x="59" y="58" width="9" height="10">
<path d="M59.3793 58.1089H67.3818V67.9998H59.3793V58.1089Z" fill="white"/>
</mask>
<g mask="url(#mask12_14_845)">
<mask id="mask13_14_845" style="mask-type:luminance" maskUnits="userSpaceOnUse" x="59" y="58" width="8" height="10">
<path d="M65.7832 58.249C65.9716 58.249 66.1648 58.2635 66.3435 58.2877C66.3966 58.2973 66.4304 58.3456 66.4159 58.3939L66.1213 60.0794C66.1117 60.1277 66.0682 60.1615 66.0199 60.1567C65.7688 60.1181 65.421 60.1181 65.1796 60.1181C63.5665 60.1181 62.4654 61.1178 62.1949 62.7067L61.4367 67.1257C61.427 67.1692 61.3932 67.203 61.3449 67.203H59.5338C59.5048 67.203 59.4807 67.1885 59.4662 67.1692C59.4469 67.1499 59.4421 67.1209 59.4469 67.0968L60.9247 58.4953C60.9344 58.4519 60.9682 58.4229 61.0117 58.4229H62.7744C62.8324 58.4229 62.8759 58.476 62.8662 58.5291L62.6296 59.8959H62.7117C63.3685 58.9493 64.7787 58.249 65.7832 58.249Z" fill="white"/>
</mask>
<g mask="url(#mask13_14_845)">
<path d="M59.4469 58.249H66.4256V67.203H59.4469V58.249Z" fill="#1629DA"/>
</g>
</g>
</g>
<defs>
<linearGradient id="paint0_linear_14_845" x1="31.6663" y1="10.9016" x2="70.8475" y2="53.1571" gradientUnits="userSpaceOnUse">
<stop stop-color="#DF0060"/>
<stop offset="0.25" stop-color="#9900CC"/>
<stop offset="0.5" stop-color="#1629DA"/>
<stop offset="0.75" stop-color="#00DAFF"/>
<stop offset="1" stop-color="#00FFB2"/>
</linearGradient>
<clipPath id="clip0_14_845">
<rect width="79.1273" height="68" fill="white"/>
</clipPath>
</defs>
</svg>
